<?xml version="1.0" encoding="utf-8"?>
<!-- Generator: Adobe Illustrator 28.0.0, SVG Export Plug-In . SVG Version: 6.00 Build 0)  -->
<svg version="1.2" baseProfile="tiny" id="Layer_1" xmlns="http://www.w3.org/2000/svg" xmlns:xlink="http://www.w3.org/1999/xlink"
	 x="0px" y="0px" viewBox="0 0 246.6 233.4" overflow="visible" xml:space="preserve">
<g id="Layer_1_00000027598237554372589440000001499193513828167326_">
	<path fill="#001F2D" d="M227.5,137c-1.4,8-2.5,13.3-3.4,16c-16.1,51.1-59.6,81.2-113,79.2c-32.8-1.2-60.5-14.7-81.2-39.4
		c-23-27.4-31.4-60-25.1-97.8C15.1,48.4,51.9,13.2,99.4,6.2c38.3-5.7,76.1,8.1,100.8,36.5C223.1,69,232.2,100.4,227.5,137z
		 M121.5,177.4c30.9-3,53.5-31.4,50.4-63.4s-30.6-55.6-61.5-52.6S56.9,92.8,60,124.8C63.1,156.8,90.6,180.4,121.5,177.4L121.5,177.4
		z"/>
	<g>
		<path fill="#ABC6B3" d="M202.6,38.8C177.1,9.4,138.4-4.6,99.1,1.3C50.7,8.5,12.6,44.3,2,92.4v0.2c-6.4,38.5,2.3,72.3,25.7,100.2
			c21.2,25.2,50,39.2,83.4,40.5c1.7,0.1,3.4,0.1,5.2,0.1c52.7,0,94.9-30.8,110.8-81.4c0.9-2.9,2-8.2,3.5-16.4v-0.1
			C235.3,98.1,225.9,65.6,202.6,38.8z M224.6,134.6c-1.4,7.8-2.4,13-3.3,15.6c-15.6,49.5-57.7,79.1-110,77.1
			c-32.1-1.2-58.7-14.1-79-38.3C10,162.5,1.8,130.4,7.9,93.7C18,48,54.1,14.1,100,7.3c37.3-5.5,73.9,7.7,98.1,35.5
			C220.2,68.2,229.1,99.1,224.6,134.6z"/>
		<path fill="#ABC6B3" d="M221.4,83.5c12.2-18.5,15.3-41.1,14.4-63.1c19,33.8,11.3,82.3-11.1,113.5"/>
	</g>
	<path fill="#FFFFFF" d="M17.5,112.4c0.2,4.5,0.5,8.9,0.7,13.4c10.2,3.4,25.2,9.5,41.2,20.4c16.8,11.5,24,21.1,32.1,28.1
		c14,12,39.3,23.5,88.9,17.8c3.3-2.7,7.8-7,11.8-13.4c3.4-5.4,5.2-10.5,6.2-14.3C142.3,144.2,86.3,124,30.2,103.9
		C25.9,106.7,21.7,109.6,17.5,112.4z"/>
	<path fill="#001F2D" d="M223.3,95.4c-6,7.9-13.6,14.1-22.7,18.8c-1.7,0.9-5.2,2.2-10.3,4c-4.2-0.9-8.1-2.3-11.8-4.2
		c-2.3-1.1-4.4-2.8-5.8-4.7c-1.9-2.4-3.7-4.3-5.5-5.8c-1.2-1.8-1.9-4.2-2.2-7.1c0-0.3-0.1-0.6-0.2-0.9c-0.1-0.3-0.3-0.5-0.5-0.7
		c-6.4-4.6-11-10.3-15.3-16.8c-1.5-2.3-2.8-4.5-3.8-6.6c-2.8-5.9-5-10.3-6.6-13.3l-7.4-10c-0.2-0.2-0.4-0.3-0.7-0.2
		c-3.1,1.2-6.1,2.3-8.9,3.1c-6.3,1.9-10.8,4.2-14.7,8.6c-0.9,1-1.8,2.5-2.6,4.4c0.3-3.5,1.3-6.7,3.2-9.6c2.4-3.6,5.3-6.6,8.8-8.9
		c5.1-3.4,9-6.5,11.7-9.1c0.5-0.5,1.1-1.2,1.6-2.1c2.1-2.5,3.8-5.5,5.1-9c0.1-0.2,0-0.3-0.2-0.1c-2.9,2-5.7,3.9-8.9,5.5
		c-5.1,2.6-10.1,5.4-15,8.4c-0.5,0.3-1.1,0.9-2,1.8c-0.1-0.8-0.1-1.7,0.2-2.7l0.1-0.2c0.1-0.2,0-0.3-0.3-0.4
		c-15.2-3-29.4-0.5-42.5,7.4c-3.9,2-7.1,4.3-9.7,6.8c-3.5,3.4-5.7,5.6-6.5,6.5c-7.5,8.4-13.5,18.1-18.1,29.1
		c-1.2,2.5-2.3,5.3-3.2,8.4c-1.6,5.5-2.8,10.6-3.5,15.4c-0.1,0.5,0,0.9,0.3,1.2c0.2,0.2,0.1,0.3-0.1,0.3l-0.7,0.1l-6.9-0.4
		c-0.2,0-0.3-0.1-0.3-0.4c0.1-2.5-0.1-4.9,0.2-7.4c2.6-23.8,13.5-44.8,32.5-59.5C68,31.2,90.4,25.8,112.6,30.6
		c0.2,0.1,0.5,0,0.7-0.1c1.5-1,3.1-2.1,4.7-2.9c5.7-3,12-5.9,16.9-9.3c2.7-1.9,5.3-3.9,7.8-6.2c0.1-0.1,0.2-0.1,0.3,0l0.1,0.1
		c0.6,9.3-0.1,17.8-4.8,26c-0.2,0.3-0.1,0.3,0.2,0.2c1.8-0.7,3.6-1.3,5.6-1.7c7.1-1.4,15.1-2,21.6-4.1c4.3-1.4,8.4-3.3,12.3-5.8
		c0.2-0.1,0.5-0.1,0.6,0.2c0.1,0.1,0.1,0.2,0.1,0.3c-1.2,8.9-5.2,15.9-12.2,21.1c-6.4,4.7-15.8,7.1-23.5,4.1c-0.2-0.1-0.3,0-0.1,0.2
		c1.2,1.7,2.3,3.6,3.2,5.5c1.8,4.1,3.6,7.7,5.3,11.1c3,5.7,6.7,10.8,11,15.3c1.5,1.5,3.2,2.9,5.2,4.2c2,1.3,4.3,1.7,6.8,1
		c6.3-1.6,12.2-6.8,15.4-12.2c0.1-0.1,0.2-0.2,0.4-0.1l0.1,0.1c3.2,5.8,5.5,11.8,6.8,18.1c0.8,3.8,0.9,7.5,0.7,11.4
		c0,0.1,0,0.1,0.1,0.1c0,0,0,0,0.1,0c6.7-3.1,12.1-7.6,17.2-13c2.2-2.4,4.2-4.9,6-7.7 M224.9,115.2c5.1-8.7,9-18,11.5-27.9
		c2.4-8.7,3.7-17.6,3.9-26.6c0.1-4.2-0.4-8.6-0.9-13c0-0.1,0-0.1-0.1-0.1l0,0c-0.1,0-0.1,0-0.1,0.1c-0.1,7.8-1.2,15.5-3.3,23
		c-2.4,7.3-5.5,14-9.5,20.2c-1,1.6-2.1,3.1-3.2,4.6 M224.5,137.2c-2.1,2.8-4.3,5.4-6.6,8c-0.2,0.2-0.2,0.4-0.1,0.6
		c0.5,1.2,0.6,2.5,0.3,3.9c-1,5-3.2,10.4-4.1,14.8c-0.5,2.3-0.8,4.3-2.6,6.1c-2.6,2.6-5.4,4.6-8.2,5.8c-5.1,2.2-10.6,3.6-16.3,4.4
		c-1,0.1-1.8-0.1-2.6-0.6c-2.8-1.9-5.9-3.4-9.1-4.4c-3.8-1.2-7.4-2.4-11.3-3.3c-6.6-1.6-12.9-3.2-19.1-4.8c-3.5-0.9-6.9-1.9-10.4-3
		c-0.1,0-0.2,0-0.3,0.1l-7.3,7.6c-0.2,0.2-0.4,0.3-0.7,0.2c-9.6-3.2-19.2-8-28.8-14.4c-2.9-2-5.9-4.3-9-7.1
		c-4.7-4.2-9.2-8.7-13.4-13.5c-0.3-1.1-1-2.7-1.9-4.8c-1.9-4.5-3.3-10.1-4.1-16.5c-0.1-0.3,0.1-0.5,0.4-0.5c0.1,0,0.3,0.1,0.3,0.2
		c0.3,1.6,0.7,3,1,4.2c0.2,0.8,0.5,1.7,0.7,2.5c0.2,0.9,0.5,1.7,0.8,2.5c0.6,1.5,1.3,2.7,2,3.9c3.3,5.4,7.3,10,11.9,15
		c3.9,4.2,8,8.1,12.4,11.7c0.4,0.3,0.8,0.3,1,0.8c0.1,0.1,0.1,0.2,0.2,0.3c0.1,0,0.1,0.1,0.2,0.1c0.2,0,0.4,0.1,0.6,0.2
		c1.8,1.5,3.5,2.9,5.4,4c0.1,0.1,0.3,0.1,0.5,0.1s0.3,0.1,0.3,0.2c0.3,0.5,0.7,0.8,1.3,0.9c0.9,0.2,1.7,0.6,2.4,1.3
		c0.5,0.6,1.3,0.9,1.9,1.5c0.2,0.1,0.3,0.2,0.6,0.3c0.4,0.1,0.6,0.3,0.9,0.5c0.1,0.1,0.3,0.2,0.5,0.2h1.1c0.3,0,0.6-0.3,0.6-0.6l0,0
		c0-0.8-0.3-1.6-0.8-2.4c-0.8-1.3-1.7-2.6-2.6-3.9c-0.8-1.1-1.8-2-2.6-3.1c-0.6-0.8-1.2-1.5-1.9-2.3c-1.9-2.1-3.6-4.2-5.1-6.3
		c-3.1-4.3-6.1-8.9-9.1-13.9c-2.5-4.1-4.6-9.2-6.4-15.1l-2.3-12.5c-0.5-5.6-0.5-11.3,0-17.1c0.3-3.1,0.7-6.6,1.2-10.3
		c0.1-0.7,0.2-1.4,0.4-2c0-0.1,0.1-0.1,0.1-0.1l0,0c0.1,0,0.1,0.1,0.1,0.1c-0.6,5.8-0.5,11.7,0.4,17.5c1.6,9.9,4.9,19.1,9.9,27.8
		c2.3,3.9,5.2,7.8,8,11.6c0.4,0.5,0.5,0.5,0.3-0.1c-0.9-2.8-1.7-5.9-1.9-8.8c-0.2-5,0-9.5,0.6-13.6l3.3-10.8c0-0.1,0-0.2-0.2-0.2
		s-0.2,0,0.1,0c0.1,0,0.1,0,0.1,0.1l0,0c-0.9,2.9-1.3,5.8-1.2,8.6c-0.4,2-0.6,4.1-0.5,6.3c0.2,6.1,1.6,11.7,4,17
		c3.2,6.7,7.5,12.3,13,16.6c4,3.1,7.8,5.5,11.4,7c5.9,2.4,9.7,3.9,11.6,4.5c8.3,2.7,16.2,5.1,23.9,7.3c1.3,0.4,2.6,0.8,3.9,1.2
		c3,1,6.1,1.8,8.9,3c2.1,0.9,5,2.4,7.2,1.9c5.2-1.3,11.3-2.4,14.8-6.7c1.1-1.3,2.1-3.6,3.2-7c0.8-2.6,1.8-5.3,2.9-8
		c0.3-0.8,0.1-1.4-0.8-1.6l-2.1-0.6c-3.4-1.7-6-3.2-7.9-4.4c-8-5.5-13.3-12.9-15.7-22.3c-0.1-0.4,0-0.6,0.2-0.6
		c0.7,2,1.7,3.9,3.1,5.7c0.6,1.4,1.6,2.7,2.8,3.9c2.5,2.3,5.2,4.2,8.3,5.6l5.4,2.8c0.4,0.2,0.9,0.1,1.3-0.2c4.2-4,8.1-8,11.7-12.8
		c2.9-3.8,5.5-7.8,7.9-11.9 M170,102.7c0.7,2.2,2,3.9,3.9,5.1c3.1,1.4,5.2,2.3,6.3,2.5c4.2,0.9,7.1-3.3,8.6-6.7
		c0.8-1.8,1.2-3.8,1.1-6.1c-0.1-2.3-0.5-4.5-1.4-6.6c-0.1-0.6-0.3-0.9-0.5-1c-0.1-0.1-0.3-0.1-0.4,0c-4.2,4.6-9.3,6.9-15.4,6.9
		c-0.4,0-0.7,0.3-0.8,0.6L170,102.7z"/>
	<g>
		<path fill="#001F2D" d="M239.8,78.8c-0.1,0.2-0.3,0.4-0.5,0.6c-0.2,0.1-0.4,0.2-0.7,0.2c-0.4,0-0.8,0-1.2,0.1
			c-0.3,0.1-0.5,0.3-0.6,0.5c-0.6,1.3-1.3,2.6-2.1,3.8c-0.4,0.6-0.7,1.3-0.9,2c-0.2,0.8-0.4,1.5-0.6,2.2c-0.3,1.1-0.7,2.3-1.2,3.4
			c-3.9,8.8-7.9,17-12.2,24.6c-4,7.1-9,13.9-15.1,20.4c-1.1,1.2-3.1,2.9-6,5c-4.1-1.1-7.9-2.8-11.4-5.1c-1.8-1.2-3.2-2.5-4.2-4
			c6-1.5,11.5-4,16.4-7.5c7-5,13.5-10.6,18.7-17.3c3.4-4.3,6.4-8.6,8.9-12.9c1.7-2.9,3-6.1,4.6-9.1c1.2-2.4,2.1-4.7,2.8-7
			c1.7-6.4,2.9-12.7,3.6-18.9c0-0.2-0.1-0.4-0.4-0.4c-0.3,0-0.6,0.2-1,0.4c1.6-8.9,2-17.7,0.9-26.6c0-0.1,0-0.1,0.1-0.1l0,0
			c0.1,0,0.1,0,0.1,0.1c1.2,4.8,2.5,9.8,3,14.6C241.9,58.2,241.5,68.5,239.8,78.8z"/>
		<path fill="#001F2D" d="M183.1,132.6c-2.1-1.8-3.7-3.8-4.8-5.9c-0.1-0.4-0.3-0.8-0.5-1.2c-0.5-0.8-0.2-1.4,0.9-1.6
			c2.5-0.2,4.7-1.1,6.7-2.5c6.3-2.8,10.5-4.9,12.6-6.2c13-8,22.9-18.3,29.7-30.7c4.2-7.6,7.2-15.8,9.2-24.4c0.3-0.3,0.6-0.4,1-0.4
			c0.3,0,0.4,0.1,0.4,0.4c-0.7,6.2-1.9,12.5-3.6,18.9c-0.6,2.3-1.6,4.7-2.8,7c-1.6,3.1-2.8,6.2-4.6,9.1c-2.5,4.3-5.5,8.6-8.9,12.9
			c-5.2,6.7-11.7,12.3-18.7,17.3C194.6,128.6,189.1,131.1,183.1,132.6z"/>
		<path fill="#001F2D" d="M239.8,78.8c-2.7,17.1-9.3,33.4-19.1,48.4c-3.9,6.1-8.3,11.2-13.1,16.5c-0.4,0.4-1,0.6-1.6,0.4l-7.3-2.4
			c2.9-2.2,4.9-3.9,6-5c6.1-6.5,11.1-13.3,15.1-20.4c4.3-7.6,8.3-15.8,12.2-24.6c0.5-1.1,0.9-2.2,1.2-3.4c0.2-0.7,0.4-1.5,0.6-2.2
			c0.2-0.7,0.5-1.4,0.9-2c0.8-1.2,1.5-2.5,2.1-3.8c0.1-0.3,0.4-0.5,0.6-0.5c0.4-0.1,0.8-0.2,1.2-0.1c0.3,0,0.5,0,0.7-0.2
			C239.5,79.3,239.6,79.1,239.8,78.8z"/>
	</g>
	<path fill="#F9F9F9" d="M129.6,34.5c-5.2,2.3-10.3,4.7-15.3,7.2c-4.2,2.1-8.5,5-11.9,8.3c-0.2,0.2-0.3,0.2-0.2-0.1
		c1-2.9,2.4-5,4.1-6.5c1.2-1.1,2-1.8,2.3-2.2c0.9-0.9,1.6-1.5,2-1.8c4.9-2.9,9.9-5.7,15-8.4c3.2-1.6,6-3.5,8.9-5.5
		c0.2-0.2,0.3-0.1,0.2,0.1C133.4,29.1,131.7,32,129.6,34.5z"/>
	<path fill="#98B1BC" d="M129.6,34.5c-0.5,0.9-1.1,1.6-1.6,2.1c-2.7,2.6-6.6,5.7-11.7,9.1c-3.5,2.3-6.4,5.3-8.8,8.9
		c-1.9,2.9-3,6.1-3.2,9.6c-0.1,1.4,0,2.9,0.4,4.5c0.1,0.3,0,0.4-0.3,0.1c-0.1-0.1-0.3-0.1-0.4,0c-0.2,0.1-0.4,0.1-0.6,0
		c-0.3-0.2-0.7-0.5-1.1-0.7c-0.4-0.3-0.8-0.5-1.3-0.6c-1-0.3-2.1-0.5-3.2-0.6c-0.9-0.1-1.8-0.4-2.6-0.9c-1.3-0.7-2.7-1.3-4.2-1.7
		c-1-0.3-2.1-0.7-3.1-1.1s-2-0.7-3-0.9c-1.1-0.2-2-0.8-3.1-1.2c-0.8-0.3-1.5-0.6-2.3-1c-0.9-0.5-1.8-0.9-2.8-1.3
		c-1.4-0.6-2.7-1.4-3.8-2.2c-0.6-0.4-1.1-0.7-1.7-1c-0.6-0.3-1.3-0.5-2-0.8c-0.3-0.1-0.4-0.4-0.3-0.6c0-0.1,0.1-0.1,0.1-0.2
		c1-0.9,1.1-1.5,0.4-1.8c9.2-6.8,20-11.1,31.3-13.3c1.3-0.2,4-0.4,8.1-0.5c-0.3,1-0.4,1.9-0.2,2.7c-0.3,0.4-1.1,1.2-2.3,2.2
		c-1.7,1.5-3.1,3.7-4.1,6.5c-0.1,0.3,0,0.3,0.2,0.1c3.4-3.3,7.7-6.2,11.9-8.3C119.3,39.3,124.4,36.9,129.6,34.5z"/>
	<path fill="#F9F9F9" d="M108.9,38.4c-4.2,0.1-6.9,0.2-8.1,0.5c-11.2,2.2-22.1,6.5-31.3,13.3c-6.4,5-11.2,9.5-14.5,13.4
		c-2.5,3-4.8,6.2-6.9,9.6c-0.1,0.1-0.2,0.2-0.3,0.3c-0.2,0-0.3,0-0.3-0.2c0-0.1,0-0.2-0.1-0.4c2.5-6.3,4.7-11.1,6.7-14.4
		c3.2-5.3,6.2-9.2,8.8-11.8c1.7-1.6,2.8-2.8,3.4-3.5c13.1-8,27.2-10.4,42.5-7.4c0.2,0,0.3,0.2,0.3,0.4L108.9,38.4z"/>
	<path fill="#5D7C88" d="M66.2,45.2c-0.6,0.7-1.7,1.9-3.4,3.5c-2.6,2.5-5.6,6.4-8.8,11.8c-2,3.3-4.2,8.1-6.7,14.4
		c-1,1.4-1.6,2.4-1.9,2.9c-0.5,1-1.1,2.5-1.8,4.5c-0.3,0.9-0.5,1.9-0.7,3c-0.2,1-0.4,2.1-0.6,3.1C42.1,89.1,42,90,42,91.2
		c0,0.9-0.2,1.9-0.4,2.8c0.1-0.7,0.1-1.3,0-2c0-0.5-0.2-0.8-0.4-1.1c-0.3-0.3-0.7-0.4-1.1-0.4c-0.2,0-0.4,0-0.6-0.1
		c-0.9-0.6-1.9-0.9-2.9-1.1c-0.7-0.1-1.3-0.3-1.9-0.6c-0.7-0.3-1.4-0.3-2.1-0.1c-0.2,0-0.4,0-0.5-0.2s-0.2-0.4-0.2-0.8
		C36.5,76.5,42.5,66.8,50,58.5c0.8-0.9,3-3.1,6.5-6.5C59.2,49.5,62.4,47.2,66.2,45.2z"/>
	<path fill="#7C99A5" d="M236.5,87.3c-0.1,0.2-0.3,0.3-0.4,0.4c-0.2,0.1-0.4,0.1-0.5,0.1c-0.3-0.1-0.6-0.1-1,0
		c-0.2,0-0.4,0.2-0.5,0.4c-0.6,1.1-1.2,2.1-2,3.1c-0.4,0.5-0.7,1-0.9,1.6s-0.4,1.3-0.7,1.9c-0.4,0.9-0.8,1.9-1.3,2.8
		c-3.8,7.2-7.8,13.9-11.8,20c-3.7,5.7-8.3,11-13.6,16c-1,0.9-2.7,2.1-5.1,3.7c-3.1-1.4-5.9-3.3-8.3-5.6c-1.3-1.2-2.2-2.5-2.8-3.9
		c4.8-0.6,9.2-2.2,13.4-4.7c5.9-3.6,11.4-7.7,16.1-12.9c3.1-3.4,5.8-6.8,8.1-10.2c1.6-2.4,2.9-4.9,4.4-7.4c1.2-1.9,2.1-3.9,2.8-5.8
		c2-5.3,3.5-10.7,4.6-16c0-0.2,0-0.3-0.3-0.3c-0.2,0-0.5,0.1-0.8,0.3c2.1-7.5,3.2-15.2,3.3-23c0-0.1,0-0.1,0.1-0.1l0,0
		c0.1,0,0.1,0,0.1,0.1c0.5,4.3,1,8.7,0.9,13C240.1,69.7,238.8,78.5,236.5,87.3z"/>
	<path fill="#7C99A5" d="M138.5,58.3l-2,0.2c-1-0.2-2.1-0.2-3.1,0c-3.5,0.6-7,1.5-10.4,2.6c-2,0.4-3.5,1.3-4.5,2.6
		c-0.3,0.4-0.7,0.8-1,1.2c-0.5,0.5-0.9,0.9-1.1,1.1c-1.2,1.5-2.5,2.7-3.3,4.5c-0.4,0.9-0.6,1.8-0.7,2.9c-0.1,2.8-0.1,5.4,0.2,7.6
		c0.4,2.6,0.8,5.5,1.5,8.7c0.4,2.3,1.2,4.5,1.8,6.8c0.9,3.4,2.4,6.5,3.8,9.7c1.1,2.6,3.1,5.5,5.9,8.6c0.4,0.4,0.8,0.8,1.2,1.1
		c1.1,0.8,2.2,1.7,3.4,2.5c3.1,1.9,6.1,3.9,9,5.9c0.2,0.1,0.3,0.2,0.5,0.3c0.6,0.2,1.1,0.4,1.6,0.8l0,0c0.8,0.6,1.7,1.3,2.6,2
		c0.2,0.1,0.4,0.1,0.5-0.1c0.4-0.5,0.4-1,0-1.7c-0.9-1.6-1.3-3.3-1.3-5.1l4.3,1c0.2,0,0.3,0.1,0.4,0.3c1.3,2.3,2.9,5.1,5.7,5.5
		c2,0.3,4.1-1.3,6.2-1.4c3-0.2,5.5,1,7.5,3.6c0.5,0.3,0.6,0.6,0.4,0.8c-0.3,0.4-0.2,1,0.2,1.4c0.2,0.1,0.4,0.2,0.6,0.2
		c0.3,0,0.6,0.1,0.9,0.3c0.2,0.1,0.3,0.1,0.5,0.1c0.7,0,1.2,0.2,1.7,0.8c0.5,0.6,1.1,1.2,1.8,1.6c0.1,0.1,0.3,0.2,0.3,0.4
		c0.7,1.4,1.3,2.9,2.2,4.1c0.5,0.6,0.9,1.3,1.3,2.1c0.1,0.2,0.2,0.3,0.4,0.4c0.5,0.3,0.9,0.6,1.2,1c0.2,0.2,0.5,0.4,0.7,0.5
		c0.5,0.2,1.4,0.6,2.7,1c0.8,0.3,1.5,0.6,2.1,1c0.8,0.6,1.7,1.1,2.6,1.6c0.3,0.2,0.5,0.2,0.8,0.3c0.7,0.1,0.9,0.7,1.5,1
		c1.2,0.7,2.5,1.3,3.9,1.7c0.6,0.2,1.1,0.5,1.6,0.9c0.5,0.5,1.1,0.9,1.8,1.1c0.2,0.1,0.5,0.1,0.7,0s0.3,0,0.4,0.1
		c0.1,0.2,0.3,0.2,0.5,0.2c0.4-0.1,0.8-0.1,1.1,0l-0.3,0.2c-0.3,0.2-0.3,0.3,0.1,0.3c1.5,0.2,3,0.7,3.4,2.3c0.8,2.7,0.6,5.6-0.6,8.6
		c-0.7,1.8-2.6,4-4.2,4.9c-2.3,1.3-7.3,3-10.3,2.2c-1.5-0.4-2.9-0.8-4.3-1.5c-6.5-3.1-12.8-6.8-18.9-11.1c-9.1-6.4-20-8.3-29.5-13.7
		c-9.5-5.4-17.1-12.5-22.7-21.4c-2.5-4-4.5-8.9-5.8-14.6c-0.1-2.8,0.2-5.7,1.2-8.6c0-0.1,0-0.1-0.1-0.1l0,0c-0.3,0.1-0.4,0.1-0.1,0
		c0.2,0,0.2,0,0.2,0.2l-3.3,10.8c-3.5-6.5-5.6-13.1-6.5-19.8c-0.1-0.5-0.5-0.8-1-0.8c0,0,0,0-0.1,0c-1,0.2-1.9,0.4-2.8,0.5
		c-0.9,0.2-1.7,0.4-2.6,0.7c-0.8,0.3-1.5,0.5-2.3,0.7c-0.2,0.1-0.3,0.2-0.4,0.3c-0.3,0.6-0.8,1.1-1.2,1.5c-0.9-5.8-1-11.6-0.4-17.5
		c0-0.1,0-0.1-0.1-0.1l0,0c-0.1,0-0.1,0-0.1,0.1c-0.2,0.7-0.3,1.3-0.4,2c-0.5,3.7-0.9,7.2-1.2,10.3c-0.6,5.7-0.6,11.4,0,17.1
		l-0.2,1.5c0,0.2-0.1,0.3-0.3,0.4c-0.3,0.1-0.4,0.3-0.5,0.6c-0.2,0.9-0.2,1.9-0.1,2.9l-0.2,1.9c0,0.2-0.1,0.3-0.3,0.3
		c-4.3,0.2-8.6,0-12.8-0.5c-1-2-1.6-4-2-6.2c0-0.1-0.1-0.1-0.2-0.1l0,0c-0.1,0-0.1,0.1-0.1,0.2c0,1.5,0.1,3,0.1,4.5
		c0,0.5-0.4,0.4-1.3-0.6c-0.1-0.1-0.3-0.2-0.5-0.2c-0.7,0-1.3-0.2-1.7-0.7c0-0.1-0.1-0.1-0.2-0.1c-0.1,0-0.1,0-0.2,0
		c-0.3,0.2-0.4,0.1-0.3-0.2c0-0.1,0-0.1,0-0.2s0-0.2-0.1-0.2l-1.5-0.5c-0.2-0.1-0.4-0.1-0.6-0.1c-0.4,0.1-0.8,0-1-0.3
		c-0.2-0.2-0.4-0.2-0.6-0.2c-0.6,0.1-1.1,0-1.6-0.4c-0.2-0.1-0.4-0.2-0.7-0.1c-0.4,0.1-0.8,0-1.2-0.3c-0.2-0.1-0.4-0.2-0.6-0.1
		c-0.5,0.1-0.9,0.2-1.4,0.5c-0.1,0.1-0.2,0-0.1-0.1c0-0.1,0-0.2-0.1-0.2s-0.2,0-0.2,0.1s0,0.1,0.1,0.2c0.1,0,0.1,0.1,0,0.1
		s-0.1,0-0.2,0l0,0c0-0.9-0.3-1.6-0.7-2c-1.2-5.8-1.7-11.7-1.4-17.6c0.1-1.4,0.3-2.8,0.5-4.1c0.3-1.3,0.5-2.7,0.7-4.2
		c0-0.2-0.1-0.3-0.2-0.4c-0.1,0-0.2-0.1-0.3-0.1c-0.2,0-0.3,0.1-0.4,0.3c-0.4,0.8-0.7,1.7-1.2,2.4c-3,4.1-5.7,8.2-8.3,12.2
		c-0.2,0.4-0.4,0.8-0.5,1.2c-0.1,0.5-0.3,0.9-0.4,1c-1.1,1.3-1.4,1.2-0.7-0.5c0.1-0.3,0.2-0.8,0.3-1.6c0.2-0.9,0.4-1.9,0.4-2.8
		c0.1-1.2,0.2-2.1,0.3-2.8c0.2-1,0.4-2,0.6-3.1c0.2-1.1,0.5-2.1,0.7-3c0.7-2,1.3-3.5,1.8-4.5c0.2-0.5,0.9-1.5,1.9-2.9
		c0.1,0.1,0.1,0.2,0.1,0.4c0,0.2,0.1,0.3,0.3,0.2c0.1,0,0.2-0.1,0.3-0.3c2.1-3.4,4.4-6.5,6.9-9.6c3.3-3.9,8.1-8.4,14.5-13.4
		c0.7,0.4,0.5,1-0.4,1.8c-0.2,0.2-0.2,0.5,0,0.7c0.1,0.1,0.1,0.1,0.2,0.1c0.7,0.3,1.3,0.5,2,0.8c0.6,0.2,1.1,0.5,1.7,1
		c1.2,0.8,2.4,1.6,3.8,2.2c1,0.4,1.9,0.9,2.8,1.3c0.8,0.4,1.5,0.7,2.3,1c1.1,0.4,2,1,3.1,1.2c1,0.2,2,0.5,3,0.9s2.1,0.8,3.1,1.1
		c1.4,0.4,2.8,1,4.2,1.7c0.9,0.5,1.8,0.8,2.6,0.9c1.1,0.2,2.2,0.4,3.2,0.6c0.4,0.1,0.9,0.3,1.3,0.6c0.4,0.3,0.7,0.5,1.1,0.7
		c0.2,0.1,0.4,0.1,0.6,0c0.2-0.1,0.3-0.1,0.4,0c0.3,0.2,0.4,0.2,0.3-0.1c-0.4-1.6-0.5-3.2-0.4-4.5c0.8-1.9,1.7-3.4,2.6-4.4
		c3.9-4.5,8.5-6.8,14.7-8.6c2.8-0.8,5.8-1.9,8.9-3.1c0.2-0.1,0.5,0,0.7,0.2L138.5,58.3z M192.2,159.3c-2.1,0.8-4.2,1.3-6.3,0.1
		c-0.5-0.3-0.6-0.2-0.1,0.2c2.1,2,4.7,3.9,7.7,5.5c2.7,1.5,4.6,1,7-0.6c2-1.3-0.8-6-2.8-6.2C196,158.2,194.2,158.5,192.2,159.3z"/>
	<path fill="#F9F9F9" d="M138.5,58.3c1.6,2.9,3.8,7.4,6.6,13.3c1,2.1,2.3,4.3,3.8,6.6c4.3,6.5,8.9,12.1,15.3,16.8
		c0.2,0.2,0.4,0.4,0.5,0.7c0.1,0.3,0.2,0.6,0.2,0.9c-2.1,0.7-4.1,0.6-5.9-0.4c-1.6-0.8-3-1.8-4.3-3c-9-8.4-15.3-18.5-19-30.4
		c-0.3-1.1-0.6-2.2-0.8-3.5c-0.1-0.5,0.4-0.7,1.5-0.7L138.5,58.3z"/>
	<path fill="#CCDADD" d="M136.5,58.5c-1.1,0-1.6,0.2-1.5,0.7c0.2,1.3,0.5,2.4,0.8,3.5c3.7,11.9,10,22,19,30.4c1.3,1.2,2.7,2.2,4.3,3
		c1.9,1,3.8,1.1,5.9,0.4c0.2,2.9,1,5.3,2.2,7.1c1,2.4,1.9,4.3,2.7,5.6c0.4,0.6,1.1,1.6,2.1,2.8c-2,1.5-4.3,1.4-6.7-0.2
		c-0.5-0.3-0.5-0.8-0.9-1.2c-0.5-0.4-1.1-0.5-1.6-0.9c-4.4-3-9.2-5.7-13.3-8.8c-4.3-3.2-8.2-7.1-11.7-11.8
		c-6.4-8.4-11.4-17.3-15-26.6c-0.1-0.3,0-0.7,0.3-1.4c3.4-1.1,6.9-2,10.4-2.6C134.4,58.3,135.5,58.3,136.5,58.5z"/>
	<path fill="#98B1BC" d="M123.1,61.1c-0.3,0.7-0.4,1.1-0.3,1.4c3.6,9.4,8.6,18.3,15,26.6c3.6,4.7,7.5,8.6,11.7,11.8
		c4.1,3.1,8.9,5.8,13.3,8.8c0.6,0.4,1.2,0.4,1.6,0.9c0.4,0.4,0.4,0.9,0.9,1.2c2.5,1.6,4.7,1.7,6.7,0.2c1.2,1.3,2.1,2.2,2.6,2.6
		c1.1,0.8,3,2,5.8,3.7c0.6,0.3,2.1,0.8,4.5,1.4c-0.9,0.1-1.1,0.5-0.9,1.3c0.1,0.4,0.2,0.7,0.3,1.1c-0.3,0-0.3,0.2-0.2,0.6
		c2.4,9.4,7.6,16.9,15.7,22.3c1.9,1.3,4.5,2.7,7.9,4.4c-1.5,0.5-2.9,1.1-4.1,1.7c-0.7,0.4-2.2,0.8-4.3,1.2c-0.4-0.1-0.7-0.1-1.1,0
		c-0.2,0-0.4,0-0.5-0.2c-0.1-0.1-0.3-0.2-0.4-0.1c-0.2,0.1-0.5,0.1-0.7,0c-0.7-0.3-1.3-0.6-1.8-1.1c-0.4-0.5-1-0.8-1.6-0.9
		c-1.4-0.4-2.7-1-3.9-1.7c-0.5-0.3-0.8-0.9-1.5-1c-0.3,0-0.6-0.1-0.8-0.3c-0.9-0.5-1.8-1-2.6-1.6c-0.6-0.4-1.3-0.7-2.1-1
		c-1.3-0.4-2.2-0.8-2.7-1c-0.3-0.1-0.5-0.3-0.7-0.5c-0.3-0.3-0.7-0.6-1.2-1c-0.2-0.1-0.3-0.3-0.4-0.4c-0.4-0.8-0.8-1.5-1.3-2.1
		c-0.9-1.2-1.5-2.7-2.2-4.1c-0.1-0.2-0.2-0.3-0.3-0.4c-0.6-0.4-1.2-0.9-1.8-1.6c-0.5-0.6-1-0.8-1.7-0.8c-0.2,0-0.4,0-0.5-0.1
		c-0.3-0.2-0.6-0.3-0.9-0.3c-0.6,0-1-0.5-1-1c0-0.2,0.1-0.4,0.2-0.6c0.2-0.2,0-0.5-0.4-0.8c-2.8-6.9-6.2-11.2-14-12.3
		c-6.1-0.8-12,0-17.8,0.5c-0.7,0.1-1.5,0.1-2.4,0c-0.2,0-0.3,0-0.1,0.2c0.3,0.2,0.5,0.3,0.8,0.4c3.2,0.6,6.3,1.3,9.4,2.1
		c0,1.8,0.5,3.5,1.3,5.1c0.4,0.7,0.4,1.2,0,1.7c-0.2,0.2-0.3,0.2-0.5,0.1c-0.9-0.7-1.8-1.4-2.6-2l0,0c-0.5-0.4-1-0.6-1.6-0.8
		c-0.2-0.1-0.4-0.1-0.5-0.3c-2.9-2-5.9-4-9-5.9c-1.2-0.7-2.2-1.7-3.4-2.5c-0.5-0.3-0.9-0.7-1.2-1.1c-2.8-3.1-4.8-6-5.9-8.6
		c-1.4-3.2-2.9-6.4-3.8-9.7c-0.6-2.3-1.4-4.6-1.8-6.8c-0.6-3.2-1.1-6.1-1.5-8.7c-0.3-2.2-0.4-4.8-0.2-7.6c0.1-1.1,0.3-2,0.7-2.9
		c0.8-1.8,2.1-3,3.3-4.5c0.2-0.2,0.5-0.6,1.1-1.1c0.3-0.3,0.7-0.7,1-1.2C119.6,62.4,121.1,61.5,123.1,61.1z"/>
	<path fill="#F9F9F9" d="M187.5,127.7c-1.4-1.8-2.5-3.7-3.1-5.7c-0.1-0.3-0.2-0.7-0.3-1.1c-0.3-0.8,0-1.2,0.9-1.3
		c1.9,0.1,3.7-0.4,5.4-1.5c5.2-1.8,8.6-3.1,10.3-4c10.8-5.5,19.4-13.3,25.9-23.4c4-6.1,7.1-12.9,9.5-20.2c0.3-0.2,0.5-0.3,0.8-0.3
		c0.2,0,0.3,0.1,0.3,0.3c-1.1,5.3-2.7,10.6-4.6,16c-0.7,1.9-1.7,3.9-2.8,5.8c-1.5,2.5-2.8,5.1-4.4,7.4c-2.4,3.4-5.1,6.8-8.1,10.2
		c-4.7,5.2-10.2,9.4-16.1,12.9C196.7,125.5,192.2,127.1,187.5,127.7z"/>
	<path fill="#3D606D" d="M53.5,105.2c0.8,4.9,2.1,9.7,3.9,14.4c0.3,0.7,1,2.1,2.2,4.3c0.1,0.2,0.1,0.4,0.1,0.5
		c-0.1,0.3-0.2,0.4-0.5,0.4c-10.3-7.1-22-11.5-34.6-11.8l0.7-0.1c0.2,0,0.3-0.1,0.1-0.3c-0.3-0.3-0.4-0.7-0.3-1.2
		c0.7-4.8,1.9-10,3.5-15.4c0.9-3.1,2-5.9,3.2-8.4c0,0.3,0.1,0.6,0.2,0.8c0.1,0.2,0.3,0.2,0.5,0.2c0.8-0.2,1.5-0.1,2.1,0.1
		s1.2,0.4,1.9,0.6c1,0.2,2,0.6,2.9,1.1c0.2,0.1,0.4,0.1,0.6,0.1c0.4-0.1,0.8,0.1,1.1,0.4s0.4,0.6,0.4,1.1c0,0.6,0,1.3,0,2
		c-0.1,0.8-0.2,1.3-0.3,1.6c-0.7,1.6-0.5,1.8,0.7,0.5c0.1-0.2,0.3-0.5,0.4-1c0.1-0.4,0.3-0.8,0.5-1.2c2.5-4.1,5.3-8.1,8.3-12.2
		c0.5-0.7,0.9-1.6,1.2-2.4c0.1-0.2,0.2-0.3,0.4-0.3c0.1,0,0.2,0,0.3,0.1c0.2,0.1,0.3,0.2,0.2,0.4c-0.2,1.4-0.4,2.8-0.7,4.2
		C52.2,85,52,86.4,52,87.8C51.8,93.6,52.3,99.4,53.5,105.2z"/>
	<path fill="#3D606D" d="M236.5,87.3c-3.7,14.6-10.5,27.9-19.5,39.8c-3.6,4.8-7.5,8.8-11.7,12.8c-0.3,0.3-0.9,0.4-1.3,0.2l-5.4-2.8
		c2.4-1.6,4.1-2.8,5.1-3.7c5.3-5,9.9-10.3,13.6-16c4-6.1,8-12.8,11.8-20c0.5-0.9,0.9-1.8,1.3-2.8c0.2-0.6,0.5-1.2,0.7-1.9
		c0.2-0.6,0.5-1.2,0.9-1.6c0.8-1,1.4-2,2-3.1c0.1-0.2,0.3-0.4,0.5-0.4c0.3-0.1,0.6-0.1,1,0c0.2,0,0.4,0,0.5-0.1
		C236.2,87.6,236.4,87.5,236.5,87.3z"/>
	<path fill="#F9F9F9" d="M188.6,90.8c0,1.3-0.4,2.5-1,3.6c-2.3,2.4-4.4,4.3-6.4,5.6c-3.1,2.1-6.8,2.9-11.2,2.5l1.5-5.2
		c0.1-0.4,0.4-0.6,0.8-0.6c6.1-0.1,11.3-2.4,15.4-6.9c0.1-0.1,0.2-0.1,0.4,0C188.4,89.9,188.5,90.3,188.6,90.8z"/>
	<path fill="#5D7C88" d="M103.9,110.8c-0.6,4.1-0.8,8.7-0.6,13.6c0.1,3,1,6,1.9,8.8c0.2,0.6,0.1,0.7-0.3,0.1
		c-2.8-3.8-5.7-7.7-8-11.6c-5-8.6-8.3-17.9-9.9-27.8c0.5-0.4,0.9-0.9,1.2-1.5c0.1-0.2,0.2-0.3,0.4-0.3c0.8-0.2,1.5-0.5,2.3-0.7
		c0.9-0.3,1.7-0.5,2.6-0.7c0.9-0.2,1.8-0.3,2.8-0.5c0.5-0.1,0.9,0.2,1,0.7c0,0,0,0,0,0.1C98.3,97.6,100.4,104.2,103.9,110.8z"/>
	<path fill="#3D606D" d="M188.6,90.8c0.9,2.1,1.3,4.3,1.4,6.6c0.1,2.3-0.3,4.4-1.1,6.1c-1.6,3.4-4.4,7.6-8.6,6.7
		c-1-0.2-3.1-1.1-6.3-2.5c1-0.2,2-0.4,3-0.8c0.8-0.3,1.4,0.1,2.1-0.3c3.6-2,6.4-4.2,8-8c0.5-1.3,0.5-2.7,0.5-4.1
		C188.3,93.3,188.6,92.1,188.6,90.8z"/>
	<path fill="#7C99A5" d="M187.6,94.5c0,1.4,0,2.8-0.5,4.1c-1.5,3.8-4.4,6.1-8,8c-0.7,0.4-1.4,0.1-2.1,0.3c-1,0.4-2,0.6-3,0.8
		c-1.9-1.2-3.3-2.9-3.9-5.1c4.4,0.4,8.2-0.5,11.2-2.5C183.2,98.8,185.3,96.9,187.6,94.5z"/>
	<path fill="#5D7C88" d="M167.1,103.6c1.8,1.5,3.7,3.4,5.5,5.8c1.5,1.9,3.6,3.5,5.8,4.7c3.7,1.9,7.6,3.3,11.8,4.2
		c-1.7,1.1-3.5,1.6-5.4,1.5c-2.4-0.6-3.9-1-4.5-1.4c-2.8-1.6-4.7-2.8-5.8-3.7c-0.6-0.4-1.5-1.3-2.6-2.6c-1-1.3-1.8-2.2-2.1-2.8
		C169,107.8,168.1,106,167.1,103.6z"/>
	<path fill="#5D7C88" d="M53.5,105.2c0.5,0.5,0.7,1.1,0.7,2l0,0c0.1,0,0.1,0,0.2,0c0.1,0,0.1,0,0-0.1c-0.1,0-0.1-0.1-0.1-0.2
		s0.1-0.1,0.2-0.1c0.1,0,0.2,0.1,0.1,0.2c0,0.1,0,0.2,0.1,0.1c0.5-0.3,0.9-0.4,1.4-0.5c0.2,0,0.4,0,0.6,0.1c0.4,0.3,0.8,0.3,1.2,0.3
		c0.2-0.1,0.5,0,0.7,0.1c0.5,0.4,1,0.5,1.6,0.4c0.2,0,0.4,0,0.6,0.2c0.3,0.3,0.6,0.4,1,0.3c0.2,0,0.4,0,0.6,0.1l1.5,0.5
		c0.1,0,0.1,0.1,0.1,0.2s0,0.1,0,0.2c-0.1,0.3,0,0.4,0.3,0.2c0.1,0,0.1,0,0.2,0c0.1,0,0.1,0.1,0.2,0.1c0.4,0.5,0.9,0.7,1.7,0.7
		c0.2,0,0.4,0.1,0.5,0.2c0.9,0.9,1.3,1.1,1.3,0.6l0.6,5.2c0.8,6.5,2.2,12,4.1,16.5c0.9,2.2,1.5,3.8,1.9,4.8
		c-4.9-4.7-10-8.9-15.4-12.7c0.3,0,0.4-0.2,0.5-0.4c0-0.2,0-0.3-0.1-0.5c-1.2-2.2-2-3.6-2.2-4.3C55.6,115,54.3,110.2,53.5,105.2z"/>
	<path fill="#3D606D" d="M84.7,105.9l2.3,12.5l0.2,2.4c0,0.3-0.1,0.7-0.3,1c-0.4,0.6-0.4,1.1-0.1,1.6c0.1,0.1,0.2,0.3,0.2,0.5
		l0.1,2.1c-0.5-1.5-0.9-2.9-1.2-4.4c-0.2-1.1-0.7-2.1-0.8-3.2c-0.1-0.7-0.2-1.3-0.3-2c-0.4-1.8-0.7-3.6-1-5.4
		c-0.2-1-0.2-1.9,0.1-2.9c0.1-0.3,0.2-0.5,0.5-0.6c0.2-0.1,0.3-0.2,0.3-0.4V105.9z"/>
	<path fill="#003A4D" d="M70.4,112.6c3.3,6.5,7.4,12.6,12.9,17.4c2.1,1.9,4.3,3.8,6.5,5.8c0.4,0.4,0.5,0.3,0.4-0.2
		c-0.2-0.7-0.7-1.2-1-1.9c-1-2.4-1.7-5-2-7.7l-0.1-2.1c0-0.2-0.1-0.3-0.2-0.5c-0.4-0.5-0.4-1.1,0.1-1.6c0.2-0.3,0.3-0.6,0.3-1
		l-0.2-2.4c1.8,5.9,4,11,6.4,15.1c3,5,6,9.6,9.1,13.9c1.5,2.1,3.2,4.2,5.1,6.3c0.7,0.7,1.3,1.5,1.9,2.3c0.8,1.1,1.8,2,2.6,3.1
		c0.9,1.3,1.8,2.6,2.6,3.9c0.5,0.8,0.7,1.6,0.8,2.4c0,0.3-0.3,0.6-0.6,0.6l0,0h-1.1c-0.2,0-0.3-0.1-0.5-0.2
		c-0.2-0.3-0.5-0.5-0.9-0.5c-0.2-0.1-0.4-0.2-0.6-0.3c-0.6-0.6-1.4-0.9-1.9-1.5c-0.6-0.7-1.4-1.1-2.4-1.3c-0.6-0.1-1-0.4-1.3-0.9
		c-0.1-0.1-0.2-0.2-0.3-0.2c-0.2,0-0.3,0-0.5-0.1c-1.8-1.1-3.6-2.5-5.4-4c-0.2-0.1-0.4-0.2-0.6-0.2c-0.1,0-0.1,0-0.2-0.1
		c-0.1-0.1-0.2-0.2-0.2-0.3c-0.2-0.5-0.7-0.5-1-0.8c-4.4-3.6-8.5-7.5-12.4-11.7c-4.6-5-8.7-9.6-11.9-15c-0.7-1.1-1.3-2.4-2-3.9
		c-0.3-0.8-0.6-1.6-0.8-2.5c-0.2-0.8-0.4-1.7-0.7-2.5c-0.4-1.2-0.7-2.7-1-4.2c0-0.1-0.1-0.2-0.3-0.2c-0.3,0-0.4,0.2-0.4,0.5
		l-0.6-5.2c0-1.5,0-3-0.1-4.5c0-0.1,0-0.1,0.1-0.2l0,0c0.1,0,0.1,0,0.2,0.1C68.7,108.6,69.4,110.6,70.4,112.6z"/>
	<path fill="#3D606D" d="M106.1,108.5c1.3,5.7,3.3,10.6,5.8,14.6c5.6,8.8,13.1,16,22.7,21.4c9.5,5.4,20.4,7.3,29.5,13.7
		c6.1,4.3,12.4,8,18.9,11.1c1.5,0.7,2.8,1.1,4.3,1.5c2.9,0.8,8-0.9,10.3-2.2c1.6-0.9,3.5-3.1,4.2-4.9c1.2-3,1.4-5.9,0.6-8.6
		c-0.5-1.6-2-2.1-3.4-2.3c-0.3,0-0.4-0.1-0.1-0.3l0.3-0.2c2.1-0.4,3.6-0.8,4.3-1.2c1.2-0.7,2.6-1.2,4.1-1.7l2.1,0.6
		c0.9,0.2,1.1,0.8,0.8,1.6c-1.1,2.7-2.1,5.4-2.9,8c-1,3.4-2.1,5.7-3.2,7c-3.5,4.3-9.6,5.4-14.8,6.7c-2.2,0.5-5.1-1-7.2-1.9
		c-2.8-1.1-5.9-1.9-8.9-3c-1.3-0.4-2.6-0.9-3.9-1.2c-7.6-2.2-15.6-4.6-23.9-7.3c-1.9-0.6-5.7-2.1-11.6-4.5c-3.6-1.5-7.4-3.8-11.4-7
		c-5.5-4.3-9.8-9.9-13-16.6c-2.5-5.3-3.8-11-4-17C105.6,112.6,105.7,110.5,106.1,108.5z"/>
	<path fill="#5D7C88" d="M83.7,111c0.3,1.8,0.7,3.6,1,5.4c0.1,0.7,0.2,1.3,0.3,2c0.1,1.2,0.6,2.1,0.8,3.2c0.3,1.5,0.7,2.9,1.2,4.4
		c0.3,2.7,1,5.3,2,7.7c0.3,0.7,0.8,1.2,1,1.9c0.1,0.5,0,0.6-0.4,0.2c-2.2-2-4.3-4-6.5-5.8c-5.5-4.9-9.6-10.9-12.9-17.4
		c4.3,0.5,8.5,0.7,12.8,0.5c0.2,0,0.3-0.1,0.3-0.3L83.7,111z"/>
	<path fill="#001F2D" d="M167.2,129.6c-2-2.6-4.5-3.8-7.5-3.6c-2,0.1-4.2,1.7-6.2,1.4c-2.8-0.4-4.4-3.3-5.7-5.5
		c-0.1-0.2-0.2-0.3-0.4-0.3l-4.3-1c-3.1-0.8-6.3-1.5-9.4-2.1c-0.3-0.1-0.5-0.2-0.8-0.4c-0.2-0.1-0.2-0.2,0.1-0.2
		c0.9,0.1,1.7,0.1,2.4,0c5.8-0.5,11.7-1.3,17.8-0.5C161,118.5,164.4,122.8,167.2,129.6z M154.8,124.2c0.4-0.3,0.6-0.9,0.3-1.3
		c-0.1-0.2-0.4-0.4-0.7-0.4l-1.9-0.2c-0.5-0.1-0.9,0.3-1,0.7l-0.2,0.7c-0.1,0.5,0.2,1,0.7,1.1l0.9,0.2c0.2,0.1,0.5,0,0.7-0.1
		L154.8,124.2z"/>
	<path fill="#3D606D" d="M154.8,124.2l-1.2,0.7c-0.2,0.1-0.5,0.2-0.7,0.1l-0.9-0.2c-0.5-0.1-0.8-0.6-0.7-1.1l0.2-0.7
		c0.1-0.5,0.6-0.8,1-0.7l1.9,0.2c0.5,0.1,0.9,0.5,0.8,1.1C155.2,123.8,155,124,154.8,124.2z"/>
	<path fill="#035A6F" d="M160.6,204c0.1-0.6-0.2-0.9-0.9-1.1c-2.5-0.5-5-0.9-7.8-1s-4.9-0.3-6.5-0.6c-4.2-0.7-8.2-1.6-12-2.5
		c-5.2-1.3-10.4-3-15.5-5.3c-4.7-2.1-9.5-4.3-14-6.9c-8.2-4.8-16.4-10.6-23.5-17.4c-4.3-4.2-8.7-8.3-13.3-12.5
		c-5.8-5.4-11.9-9.5-18.3-12.4c-3.2-1.4-6-2.3-8.4-2.6c-5.1-0.7-10.9-0.7-17.2-0.2c-0.3,0-0.5-0.1-0.7-0.3c-0.2-0.1-0.3-0.2-0.5,0
		s-0.3,0.4-0.4,0.7c-1.5-5.4-2.7-10.8-3.5-16.3c0-0.2,0.1-0.3,0.3-0.3c1.7-0.1,4.4-0.1,8.1,0.1c13.2,0.7,24.5,4.8,34,12.2
		c4.2,3.3,8.1,6.8,12,10.7c5,5.1,8.9,8.9,11.8,11.5c16.9,15.2,36.6,24.8,58.9,28.7c12.1,2.1,24.4,3.1,37,3c0.1,0,0.3,0.1,0.3,0.3
		c0,0.1,0,0.2-0.1,0.2C174.3,196.8,167.7,200.8,160.6,204z"/>
	<path fill="#003A4D" d="M160.6,204l-7.6,2.8c-4.3-0.3-8.5-0.7-12.7-1c-22.6-1.7-42.5-9.7-59.5-24c-2.5-2.1-5.3-4.7-8.4-7.6
		c-7.7-7.5-15.9-13.6-26.2-17.6c-6.4-2.4-13-3.3-19.9-2.6c-1.9-3.7-3.5-7.6-4.7-11.9c0.1-0.3,0.2-0.5,0.4-0.7c0.2-0.1,0.3-0.1,0.5,0
		c0.2,0.2,0.4,0.3,0.7,0.3c6.3-0.5,12.1-0.5,17.2,0.2c2.5,0.3,5.3,1.2,8.4,2.6c6.4,2.9,12.5,7,18.3,12.4c4.5,4.2,8.9,8.3,13.3,12.5
		c7.1,6.9,15.3,12.6,23.5,17.4c4.5,2.6,9.3,4.8,14,6.9c5.1,2.3,10.2,4,15.5,5.3c3.8,0.9,7.8,1.7,12,2.5c1.5,0.3,3.7,0.5,6.5,0.6
		c2.7,0.1,5.3,0.4,7.8,1C160.5,203.1,160.7,203.5,160.6,204z"/>
	<path fill="#6AEFFF" d="M153,206.9c-1.8,0.6-3.6,1.2-5.4,1.8c-9.8,3.3-19.8,5.1-30,4.9c-3.3-0.1-7.3-0.4-12.1-0.9
		c-3.8-0.4-7.7-1.2-11.8-2.2c-17.1-4.3-32.9-13.4-45.8-25.6c-3-2.8-5.8-6.1-8.6-9.3c-1.1-1.2-2.1-2.5-3.1-4
		c-3.8-5.4-7-11.2-9.8-17.5c6.9-0.7,13.5,0.2,19.9,2.6c10.3,3.9,18.6,10.1,26.2,17.6c3.1,3,5.8,5.5,8.4,7.6
		c17,14.4,36.9,22.4,59.5,24C144.5,206.2,148.7,206.5,153,206.9z"/>
	<path fill="#001F2D" d="M192.2,159.3c2-0.8,3.8-1.1,5.5-1c2,0.1,4.8,4.9,2.8,6.2c-2.4,1.6-4.4,2-7,0.6c-3-1.6-5.5-3.5-7.7-5.5
		c-0.4-0.4-0.4-0.5,0.1-0.2C188,160.6,190.1,160.1,192.2,159.3z"/>
</g>
</svg>
